<svg width="42" height="42" viewBox="0 0 42 42" fill="none" xmlns="http://www.w3.org/2000/svg">
<path d="M5.90625 6.5625C4.8219 6.5625 3.9375 7.4469 3.9375 8.53125V9.23877C1.71497 9.55921 0 11.4716 0 13.7813V32.1563C0 34.689 2.06104 36.75 4.59375 36.75H37.4062C39.939 36.75 42 34.689 42 32.1563V13.7813C42 11.2485 39.939 9.18751 37.4062 9.18751H17.7188V8.53126C17.7188 7.44691 16.8343 6.56251 15.75 6.56251H15.0938C14.0094 6.56251 13.125 7.44691 13.125 8.53126V9.18751H11.8125V8.53126C11.8125 7.44691 10.9281 6.56251 9.84375 6.56251L5.90625 6.5625ZM5.90625 7.875H9.84375C10.2052 7.875 10.5 8.1698 10.5 8.53125V9.1875H5.25V8.53125C5.25 8.1698 5.5448 7.875 5.90625 7.875ZM15.0938 7.875H15.75C16.1114 7.875 16.4062 8.1698 16.4062 8.53125V9.1875H14.4375V8.53125C14.4375 8.1698 14.7323 7.875 15.0938 7.875ZM4.59375 10.5H37.4062C39.2161 10.5 40.6875 11.9714 40.6875 13.7812V21H36.0604C35.7246 16.6036 32.0435 13.125 27.5625 13.125C23.0815 13.125 19.4004 16.6036 19.0646 21H8.53125C8.16723 21 7.875 21.2948 7.875 21.6562C7.875 22.0177 8.16723 22.3125 8.53125 22.3125H19.0646C19.4004 26.7089 23.0815 30.1875 27.5625 30.1875C32.0435 30.1875 35.7246 26.7089 36.0604 22.3125H40.6875V32.1562C40.6875 33.9661 39.2161 35.4375 37.4062 35.4375H4.59375C2.78394 35.4375 1.3125 33.9661 1.3125 32.1562V13.7812C1.3125 11.9714 2.78394 10.5 4.59375 10.5ZM5.25 13.125C4.5271 13.125 3.9375 13.7146 3.9375 14.4375V17.0625C3.9375 17.7854 4.5271 18.375 5.25 18.375H10.5C11.2229 18.375 11.8125 17.7854 11.8125 17.0625V14.4375C11.8125 13.7146 11.2229 13.125 10.5 13.125H5.25ZM13.7812 13.125C13.4172 13.125 13.125 13.4198 13.125 13.7812C13.125 14.1427 13.4172 14.4375 13.7812 14.4375H19.0312C19.3953 14.4375 19.6875 14.1427 19.6875 13.7812C19.6875 13.4198 19.3953 13.125 19.0312 13.125H13.7812ZM36.75 13.125C36.0245 13.125 35.4375 13.712 35.4375 14.4375C35.4375 15.163 36.0245 15.75 36.75 15.75C37.4755 15.75 38.0625 15.163 38.0625 14.4375C38.0625 13.712 37.4755 13.125 36.75 13.125ZM5.25 14.4375H10.5V17.0625H5.25V14.4375ZM27.5625 14.4375C31.5436 14.4375 34.7812 17.6752 34.7812 21.6562C34.7812 25.6373 31.5436 28.875 27.5625 28.875C23.5814 28.875 20.3438 25.6373 20.3438 21.6562C20.3438 17.6752 23.5814 14.4375 27.5625 14.4375ZM13.7812 15.75C13.4172 15.75 13.125 16.0448 13.125 16.4062C13.125 16.7677 13.4172 17.0625 13.7812 17.0625H16.4062C16.7703 17.0625 17.0625 16.7677 17.0625 16.4062C17.0625 16.0448 16.7703 15.75 16.4062 15.75H13.7812ZM27.5625 15.75C24.3043 15.75 21.6562 18.4006 21.6562 21.6562C21.6562 24.9119 24.3043 27.5625 27.5625 27.5625C30.8207 27.5625 33.4688 24.9119 33.4688 21.6562C33.4688 18.4006 30.8207 15.75 27.5625 15.75ZM27.5625 17.0625C30.0952 17.0625 32.1562 19.1235 32.1562 21.6562C32.1562 24.189 30.0952 26.25 27.5625 26.25C25.0298 26.25 22.9688 24.189 22.9688 21.6562C22.9688 19.1235 25.0298 17.0625 27.5625 17.0625ZM3.28125 21C2.91723 21 2.625 21.2948 2.625 21.6562C2.625 22.0177 2.91723 22.3125 3.28125 22.3125H5.90625C6.27027 22.3125 6.5625 22.0177 6.5625 21.6562C6.5625 21.2948 6.27027 21 5.90625 21H3.28125ZM4.59375 31.5C4.19898 31.5 3.9375 31.7922 3.9375 32.1562V33.4688C3.9375 33.8328 4.19898 34.125 4.59375 34.125C4.98852 34.125 5.25 33.8328 5.25 33.4688V32.1562C5.25 31.7922 4.98852 31.5 4.59375 31.5ZM7.875 31.5C7.48023 31.5 7.21875 31.7922 7.21875 32.1562V33.4688C7.21875 33.8328 7.48023 34.125 7.875 34.125C8.26977 34.125 8.53125 33.8328 8.53125 33.4688V32.1562C8.53125 31.7922 8.26977 31.5 7.875 31.5ZM11.1562 31.5C10.7615 31.5 10.5 31.7922 10.5 32.1562V33.4688C10.5 33.8328 10.7615 34.125 11.1562 34.125C11.551 34.125 11.8125 33.8328 11.8125 33.4688V32.1562C11.8125 31.7922 11.551 31.5 11.1562 31.5ZM14.4375 31.5C14.0427 31.5 13.7812 31.7922 13.7812 32.1562V33.4688C13.7812 33.8328 14.0427 34.125 14.4375 34.125C14.8323 34.125 15.0938 33.8328 15.0938 33.4688V32.1562C15.0938 31.7922 14.8323 31.5 14.4375 31.5ZM17.7188 31.5C17.324 31.5 17.0625 31.7922 17.0625 32.1562V33.4688C17.0625 33.8328 17.324 34.125 17.7188 34.125C18.1135 34.125 18.375 33.8328 18.375 33.4688V32.1562C18.375 31.7922 18.1135 31.5 17.7188 31.5ZM21 31.5C20.6052 31.5 20.3438 31.7922 20.3438 32.1562V33.4688C20.3438 33.8328 20.6052 34.125 21 34.125C21.3948 34.125 21.6562 33.8328 21.6562 33.4688V32.1562C21.6562 31.7922 21.3948 31.5 21 31.5ZM24.2812 31.5C23.8865 31.5 23.625 31.7922 23.625 32.1562V33.4688C23.625 33.8328 23.8865 34.125 24.2812 34.125C24.676 34.125 24.9375 33.8328 24.9375 33.4688V32.1562C24.9375 31.7922 24.676 31.5 24.2812 31.5ZM27.5625 31.5C27.1677 31.5 26.9062 31.7922 26.9062 32.1562V33.4688C26.9062 33.8328 27.1677 34.125 27.5625 34.125C27.9573 34.125 28.2188 33.8328 28.2188 33.4688V32.1562C28.2188 31.7922 27.9573 31.5 27.5625 31.5ZM30.8438 31.5C30.449 31.5 30.1875 31.7922 30.1875 32.1562V33.4688C30.1875 33.8328 30.449 34.125 30.8438 34.125C31.2385 34.125 31.5 33.8328 31.5 33.4688V32.1562C31.5 31.7922 31.2385 31.5 30.8438 31.5ZM34.125 31.5C33.7302 31.5 33.4688 31.7922 33.4688 32.1562V33.4688C33.4688 33.8328 33.7302 34.125 34.125 34.125C34.5198 34.125 34.7812 33.8328 34.7812 33.4688V32.1562C34.7812 31.7922 34.5198 31.5 34.125 31.5ZM37.4062 31.5C37.0115 31.5 36.75 31.7922 36.75 32.1562V33.4688C36.75 33.8328 37.0115 34.125 37.4062 34.125C37.801 34.125 38.0625 33.8328 38.0625 33.4688V32.1562C38.0625 31.7922 37.801 31.5 37.4062 31.5Z" fill="#4636FF"/>
</svg>
