<svg width="42" height="42" viewBox="0 0 42 42" fill="none" xmlns="http://www.w3.org/2000/svg">
<g clip-path="url(#clip0_1245_2057)">
<path d="M16.8693 28.365C16.6496 28.365 16.439 28.2587 16.3214 28.0751L13.1889 23.1927C13.1403 23.1166 13.1104 23.0314 13.1014 22.9431C13.0924 22.8549 13.1045 22.7659 13.1369 22.6826C13.1698 22.5994 13.2222 22.5241 13.2901 22.462C13.3581 22.4 13.44 22.3528 13.5299 22.3239L15.944 21.5554C16.1263 21.4975 16.3269 21.5188 16.4901 21.6149C16.6533 21.7109 16.7609 21.8699 16.7836 22.0484L17.502 27.6994C17.5193 27.8346 17.4862 27.9713 17.4084 28.0866C17.3306 28.2018 17.2127 28.2887 17.0745 28.3327C17.0081 28.3538 16.9385 28.3647 16.8684 28.365H16.8693ZM14.6895 23.2131L15.8838 25.0741L15.6103 22.9198L14.6904 23.2131H14.6895Z" fill="#3A2BE5"/>
<path d="M41.3609 42.0002H0.638173C0.285355 42.0002 0 41.7341 0 41.4051V10.2184C0 9.88939 0.285355 9.62329 0.638173 9.62329H9.104C9.45682 9.62329 9.74217 9.88939 9.74217 10.2184C9.74217 10.5474 9.45682 10.8135 9.104 10.8135H1.27635V40.8092H40.7227V10.8143H11.8026C11.4497 10.8143 11.1644 10.5482 11.1644 10.2192C11.1644 9.89024 11.4497 9.62414 11.8026 9.62414H41.3618C41.7146 9.62414 42 9.89024 42 10.2192V41.4051C42 41.7341 41.7146 42.0002 41.3618 42.0002H41.3609Z" fill="#3A2BE5"/>
<path d="M34.7432 38.7954H7.25622C6.9034 38.7954 6.61804 38.5293 6.61804 38.2003V32.9906C6.61804 32.6616 6.9034 32.3955 7.25622 32.3955H34.7423C35.0952 32.3955 35.3805 32.6616 35.3805 32.9906V38.2003C35.3805 38.5293 35.0952 38.7954 34.7423 38.7954H34.7432ZM7.8953 37.6052H34.1051V33.5857H7.8953V37.6052Z" fill="#3A2BE5"/>
<path d="M24.9816 36.9619C24.6288 36.9619 24.3434 36.6958 24.3434 36.3668V33.5162C24.3434 33.1872 24.6288 32.9211 24.9816 32.9211C25.3344 32.9211 25.6198 33.1872 25.6198 33.5162V36.3668C25.6198 36.6958 25.3344 36.9619 24.9816 36.9619ZM15.027 36.9619C14.6742 36.9619 14.3888 36.6958 14.3888 36.3668V33.5162C14.3888 33.1872 14.6742 32.9211 15.027 32.9211C15.3798 32.9211 15.6652 33.1872 15.6652 33.5162V36.3668C15.6652 36.6958 15.3798 36.9619 15.027 36.9619ZM32.9442 35.7836C32.5914 35.7836 32.306 35.5175 32.306 35.1885V33.5162C32.306 33.1872 32.5914 32.9211 32.9442 32.9211C33.297 32.9211 33.5823 33.1872 33.5823 33.5162V35.1885C33.5823 35.5175 33.297 35.7836 32.9442 35.7836ZM30.954 35.7836C30.6012 35.7836 30.3158 35.5175 30.3158 35.1885V33.5162C30.3158 33.1872 30.6012 32.9211 30.954 32.9211C31.3068 32.9211 31.5922 33.1872 31.5922 33.5162V35.1885C31.5922 35.5175 31.3068 35.7836 30.954 35.7836ZM28.962 35.7836C28.6092 35.7836 28.3238 35.5175 28.3238 35.1885V33.5162C28.3238 33.1872 28.6092 32.9211 28.962 32.9211C29.3148 32.9211 29.6001 33.1872 29.6001 33.5162V35.1885C29.6001 35.5175 29.3148 35.7836 28.962 35.7836ZM26.9718 35.7836C26.619 35.7836 26.3336 35.5175 26.3336 35.1885V33.5162C26.3336 33.1872 26.619 32.9211 26.9718 32.9211C27.3246 32.9211 27.61 33.1872 27.61 33.5162V35.1885C27.61 35.5175 27.3246 35.7836 26.9718 35.7836ZM22.9896 35.7836C22.6368 35.7836 22.3514 35.5175 22.3514 35.1885V33.5162C22.3514 33.1872 22.6368 32.9211 22.9896 32.9211C23.3424 32.9211 23.6278 33.1872 23.6278 33.5162V35.1885C23.6278 35.5175 23.3424 35.7836 22.9896 35.7836ZM20.9994 35.7836C20.6466 35.7836 20.3612 35.5175 20.3612 35.1885V33.5162C20.3612 33.1872 20.6466 32.9211 20.9994 32.9211C21.3522 32.9211 21.6376 33.1872 21.6376 33.5162V35.1885C21.6376 35.5175 21.3522 35.7836 20.9994 35.7836ZM19.0092 35.7836C18.6564 35.7836 18.371 35.5175 18.371 35.1885V33.5162C18.371 33.1872 18.6564 32.9211 19.0092 32.9211C19.362 32.9211 19.6474 33.1872 19.6474 33.5162V35.1885C19.6474 35.5175 19.362 35.7836 19.0092 35.7836ZM17.019 35.7836C16.6662 35.7836 16.3808 35.5175 16.3808 35.1885V33.5162C16.3808 33.1872 16.6662 32.9211 17.019 32.9211C17.3718 32.9211 17.6572 33.1872 17.6572 33.5162V35.1885C17.6572 35.5175 17.3718 35.7836 17.019 35.7836ZM13.0368 35.7836C12.684 35.7836 12.3986 35.5175 12.3986 35.1885V33.5162C12.3986 33.1872 12.684 32.9211 13.0368 32.9211C13.3896 32.9211 13.675 33.1872 13.675 33.5162V35.1885C13.675 35.5175 13.3896 35.7836 13.0368 35.7836ZM11.0466 35.7836C10.6938 35.7836 10.4085 35.5175 10.4085 35.1885V33.5162C10.4085 33.1872 10.6938 32.9211 11.0466 32.9211C11.3994 32.9211 11.6848 33.1872 11.6848 33.5162V35.1885C11.6848 35.5175 11.3994 35.7836 11.0466 35.7836ZM9.0537 35.7836C8.70088 35.7836 8.41553 35.5175 8.41553 35.1885V33.5162C8.41553 33.1872 8.70088 32.9211 9.0537 32.9211C9.40652 32.9211 9.69187 33.1872 9.69187 33.5162V35.1885C9.69187 35.5175 9.40652 35.7836 9.0537 35.7836Z" fill="#3A2BE5"/>
<path d="M34.458 19.4362C32.1095 19.4362 30.1996 17.6543 30.1996 15.4652C30.1996 13.2761 32.1104 11.4958 34.458 11.4958C36.8056 11.4958 38.7146 13.2761 38.7146 15.4652C38.7146 17.6543 36.8056 19.4362 34.458 19.4362ZM34.458 12.6861C32.8133 12.6861 31.4759 13.9324 31.4759 15.4643C31.4759 16.9963 32.8133 18.2452 34.458 18.2452C36.1027 18.2452 37.4374 16.998 37.4374 15.4643C37.4374 13.9307 36.1009 12.6861 34.458 12.6861ZM35.1992 30.7431C35.0889 30.7431 34.9786 30.7168 34.8801 30.6632L31.1204 28.6365C31.0233 28.5843 30.9427 28.5093 30.8867 28.4188C30.8307 28.3284 30.8012 28.2257 30.8013 28.1213V24.0729C30.8012 23.9685 30.8306 23.866 30.8864 23.7756C30.9423 23.6852 31.0226 23.61 31.1195 23.5577L34.8801 21.531C34.9771 21.4787 35.0872 21.4513 35.1992 21.4513C35.3112 21.4513 35.4213 21.4787 35.5183 21.531L39.279 23.5577C39.3758 23.61 39.4561 23.6852 39.512 23.7756C39.5678 23.866 39.5972 23.9685 39.5971 24.0729V28.1213C39.5971 28.3338 39.4759 28.5302 39.278 28.6365L35.5183 30.6632C35.4198 30.7168 35.3095 30.7431 35.1992 30.7431ZM32.0776 27.7778L35.1992 29.4603L38.3208 27.7778V24.4164L35.1992 22.7339L32.0776 24.4164V27.7778ZM26.0332 18.6073H20.3735C20.0207 18.6073 19.7354 18.3412 19.7354 18.0122V12.7345C19.7354 12.4055 20.0207 12.1394 20.3735 12.1394H26.0332C26.386 12.1394 26.6714 12.4055 26.6714 12.7345V18.0122C26.6714 18.3412 26.386 18.6073 26.0332 18.6073ZM21.0117 17.4171H25.3941V13.3296H21.0117V17.4171ZM27.5165 29.8683H18.893C18.781 29.8683 18.671 29.8407 18.574 29.7884C18.4771 29.7362 18.3966 29.6611 18.3406 29.5706C18.2846 29.4802 18.2551 29.3776 18.2551 29.2732C18.2551 29.1687 18.2845 29.0661 18.3405 28.9757L22.6536 22.0087C22.7095 21.9182 22.7901 21.8431 22.887 21.7908C22.984 21.7386 23.0941 21.7111 23.2061 21.7112C23.434 21.7112 23.6446 21.8251 23.7586 22.0087L28.069 28.9757C28.1249 29.0661 28.1544 29.1687 28.1544 29.2732C28.1543 29.3776 28.1249 29.4802 28.0689 29.5706C28.0129 29.6611 27.9324 29.7362 27.8354 29.7884C27.7385 29.8407 27.6285 29.8683 27.5165 29.8683ZM19.9979 28.6781H26.4106L23.2052 23.4973L19.9979 28.6781Z" fill="#3A2BE5"/>
<path d="M16.1952 29.8681H3.79094C3.43812 29.8681 3.15277 29.602 3.15277 29.273C3.15277 28.944 3.43812 28.6779 3.79094 28.6779H16.1952C16.548 28.6779 16.8334 28.944 16.8334 29.273C16.8334 29.602 16.548 29.8681 16.1952 29.8681ZM13.4328 27.5668H3.79094C3.43812 27.5668 3.15277 27.3007 3.15277 26.9717C3.15277 26.6427 3.43812 26.3766 3.79094 26.3766H13.4328C13.7856 26.3766 14.071 26.6427 14.071 26.9717C14.071 27.3007 13.7856 27.5668 13.4328 27.5668ZM12.0498 25.2654H3.79094C3.43812 25.2654 3.15277 24.9994 3.15277 24.6703C3.15277 24.3413 3.43812 24.0752 3.79094 24.0752H12.0498C12.4026 24.0752 12.688 24.3413 12.688 24.6703C12.688 24.9994 12.4026 25.2654 12.0498 25.2654ZM11.1609 22.9641H3.79094C3.43812 22.9641 3.15277 22.698 3.15277 22.369C3.15277 22.04 3.43812 21.7739 3.79094 21.7739H11.1609C11.5137 21.7739 11.7991 22.04 11.7991 22.369C11.7991 22.698 11.5137 22.9641 11.1609 22.9641ZM10.1399 20.6628H3.79003C3.43721 20.6628 3.15186 20.3967 3.15186 20.0677C3.15186 19.7387 3.43721 19.4726 3.79003 19.4726H10.1399C10.4927 19.4726 10.778 19.7387 10.778 20.0677C10.778 20.3967 10.4927 20.6628 10.1399 20.6628ZM8.72584 18.3614H3.79003C3.43721 18.3614 3.15186 18.0953 3.15186 17.7663C3.15186 17.4373 3.43721 17.1712 3.79003 17.1712H8.72584C9.07866 17.1712 9.36402 17.4373 9.36402 17.7663C9.36402 18.0953 9.07866 18.3614 8.72584 18.3614ZM8.72584 16.0601H3.79003C3.43721 16.0601 3.15186 15.794 3.15186 15.465C3.15186 15.136 3.43721 14.8699 3.79003 14.8699H8.72584C9.07866 14.8699 9.36402 15.136 9.36402 15.465C9.36402 15.794 9.07866 16.0601 8.72584 16.0601Z" fill="#3A2BE5"/>
<path d="M13.7385 23.4814C13.6053 23.4814 13.4755 23.4425 13.3671 23.3703C13.2587 23.298 13.1773 23.196 13.1341 23.0785L5.5599 2.363C5.21802 1.43294 5.75317 0.416164 6.75328 0.0965094C7.23556 -0.0573668 7.75521 -0.0267616 8.21561 0.184924C8.6751 0.39576 9.0188 0.759622 9.18381 1.20935L16.7562 21.9248C16.8702 22.236 16.6915 22.5743 16.3587 22.6798L13.9446 23.4483C13.8771 23.4695 13.8078 23.4806 13.7385 23.4806V23.4814ZM7.36958 1.1915C7.3012 1.1915 7.23282 1.2017 7.16627 1.22295C6.8326 1.32922 6.65391 1.66843 6.76696 1.97788L14.136 22.1297L15.3413 21.7455L7.97584 1.59446C7.94865 1.52055 7.90606 1.45238 7.85052 1.39388C7.79498 1.33537 7.72758 1.28768 7.6522 1.25356C7.56194 1.21275 7.46621 1.1915 7.36958 1.1915Z" fill="#3A2BE5"/>
</g>
<defs>
<clipPath id="clip0_1245_2057">
<rect width="42" height="42" fill="white"/>
</clipPath>
</defs>
</svg>
