<svg width="42" height="42" viewBox="0 0 42 42" fill="none" xmlns="http://www.w3.org/2000/svg">
<path d="M37.6122 33.3163H24.6045V32.0021H37.6122C38.946 32.0021 40.0313 30.9169 40.0313 29.583V8.95956C40.0313 7.62573 38.946 6.54046 37.6122 6.54046H4.39037C3.0549 6.54046 1.9688 7.62573 1.9688 8.95956V29.5822C1.9688 30.916 3.0549 32.0013 4.39037 32.0013H17.905V33.3155H4.39037C2.33056 33.3155 0.654663 31.6404 0.654663 29.5822V8.95956C0.654663 6.9014 2.33056 5.22632 4.39037 5.22632H37.6122C39.6704 5.22632 41.3454 6.9014 41.3454 8.95956V29.5822C41.3454 31.6404 39.6704 33.3155 37.6122 33.3155V33.3163Z" fill="#3A2BE5"/>
<path d="M40.6883 11.8954H35.787C35.4244 11.8954 35.1299 11.6018 35.1299 11.2384C35.1299 10.875 35.4244 10.5813 35.787 10.5813H40.6883C41.0509 10.5813 41.3454 10.875 41.3454 11.2384C41.3454 11.6018 41.0509 11.8954 40.6883 11.8954Z" fill="#3A2BE5"/>
<path d="M35.787 33.3163C35.4244 33.3163 35.1299 33.0226 35.1299 32.6592V5.88339C35.1299 5.52081 35.4244 5.22632 35.787 5.22632C36.1495 5.22632 36.444 5.51999 36.444 5.88339V32.6592C36.444 33.0218 36.1495 33.3163 35.787 33.3163Z" fill="#3A2BE5"/>
<path d="M40.6883 17.2504H35.787C35.4244 17.2504 35.1299 16.9567 35.1299 16.5933C35.1299 16.23 35.4244 15.9363 35.787 15.9363H40.6883C41.0509 15.9363 41.3454 16.23 41.3454 16.5933C41.3454 16.9567 41.0509 17.2504 40.6883 17.2504ZM40.6883 22.6054H35.787C35.4244 22.6054 35.1299 22.3117 35.1299 21.9483C35.1299 21.585 35.4244 21.2913 35.787 21.2913H40.6883C41.0509 21.2913 41.3454 21.585 41.3454 21.9483C41.3454 22.3117 41.0509 22.6054 40.6883 22.6054ZM40.6883 27.9604H35.787C35.4244 27.9604 35.1299 27.6667 35.1299 27.3033C35.1299 26.94 35.4244 26.6463 35.787 26.6463H40.6883C41.0509 26.6463 41.3454 26.94 41.3454 27.3033C41.3454 27.6667 41.0509 27.9604 40.6883 27.9604Z" fill="#3A2BE5"/>
<path d="M30.2696 31.4952C29.5953 31.4952 28.9309 31.3188 28.3312 30.9726C27.1254 30.277 26.3928 28.9957 26.3846 27.6266L22.3905 25.3199C22.0763 25.1386 21.9689 24.7366 22.1502 24.4224C22.3315 24.1083 22.7334 24.0008 23.0476 24.1821L27.3887 26.689C27.4989 26.7526 27.5883 26.8468 27.6459 26.9603C27.7036 27.0737 27.7271 27.2015 27.7135 27.328C27.6044 28.3411 28.1048 29.3246 28.9883 29.8349C29.5847 30.1794 30.2787 30.2705 30.9431 30.0924C31.6076 29.9144 32.1629 29.4879 32.5074 28.8923C33.2178 27.6627 32.7945 26.0844 31.5641 25.374C30.6806 24.8638 29.5773 24.9228 28.7553 25.5241C28.6526 25.5993 28.5301 25.643 28.403 25.6498C28.2758 25.6567 28.1494 25.6264 28.0392 25.5627L22.3676 22.2888C22.0534 22.1075 21.9459 21.7056 22.1272 21.3914C22.3085 21.0772 22.7104 20.9697 23.0246 21.151L28.3493 24.2247C28.9396 23.8888 29.6076 23.7132 30.2869 23.7154C30.9661 23.7175 31.6329 23.8974 32.2212 24.2371C34.0783 25.31 34.7174 27.693 33.6452 29.5502C33.126 30.4501 32.2868 31.094 31.2835 31.3631C30.9488 31.4533 30.6084 31.4976 30.2704 31.4976L30.2696 31.4952ZM30.2729 29.4173C29.9579 29.4173 29.647 29.3345 29.3673 29.1721C28.9497 28.9309 28.6503 28.5404 28.5248 28.0728C28.4026 27.6192 28.4592 27.1467 28.6831 26.7374C28.6905 26.7226 28.6979 26.7087 28.7061 26.6939C29.2098 25.8293 30.3213 25.534 31.1835 26.036C31.601 26.2764 31.902 26.6676 32.0276 27.136C32.1531 27.6036 32.0883 28.0925 31.8446 28.5117C31.6026 28.9301 31.2113 29.2295 30.7438 29.355C30.5887 29.3968 30.4304 29.4173 30.2737 29.4173H30.2729ZM29.8546 27.3337L29.8422 27.3559C29.7766 27.4699 29.7586 27.6036 29.793 27.7324C29.8275 27.8612 29.9103 27.9687 30.0252 28.0351C30.1408 28.1024 30.2754 28.1204 30.4042 28.086C30.5329 28.0515 30.6404 27.9695 30.7069 27.8546C30.7741 27.739 30.7922 27.6053 30.7577 27.4765C30.7233 27.3477 30.6404 27.2402 30.5247 27.1738C30.4137 27.1094 30.2823 27.0902 30.1575 27.1202C30.0327 27.1501 29.9243 27.2269 29.8546 27.3346V27.3337ZM19.6212 23.6194C19.5096 23.6194 19.3964 23.5906 19.293 23.5316L16.426 21.8762C16.1119 21.6949 16.0044 21.293 16.1857 20.9788C16.367 20.6646 16.7689 20.5571 17.0831 20.7384L19.9501 22.3938C20.2643 22.5751 20.3717 22.9771 20.1904 23.2912C20.069 23.5021 19.8476 23.6194 19.6212 23.6194ZM12.792 19.6753C12.6772 19.6751 12.5643 19.6449 12.4647 19.5875L9.63959 17.9576C9.4939 17.8739 9.38607 17.7373 9.33853 17.5761L8.2549 13.9298C8.21762 13.8038 8.21898 13.6694 8.2588 13.5441C8.29862 13.4189 8.37507 13.3084 8.47829 13.227C8.58151 13.1456 8.70675 13.097 8.83787 13.0874C8.96898 13.0779 9.09994 13.1079 9.21385 13.1735L13.0783 15.4056C13.3925 15.5869 13.5 15.9888 13.3187 16.303C13.1374 16.6172 12.7354 16.7246 12.4213 16.5433L9.98494 15.1357L10.5239 16.9502L13.1226 18.4497C13.4368 18.631 13.5443 19.033 13.363 19.3472C13.3054 19.4472 13.2224 19.5302 13.1225 19.588C13.0225 19.6457 12.9091 19.6761 12.7937 19.6761L12.792 19.6753Z" fill="#3A2BE5"/>
<path d="M14.1349 23.0452C13.8272 23.0452 13.5188 22.964 13.2383 22.8007C12.6796 22.48 12.3441 21.9 12.3441 21.2511V9.86684C12.3441 9.22043 12.6788 8.64047 13.2383 8.31481C13.8002 7.99161 14.4679 7.99243 15.0274 8.31317L19.9607 11.1621C20.2749 11.3434 20.3824 11.7454 20.2011 12.0595C20.0198 12.3737 19.6178 12.4812 19.3036 12.2999L14.3719 9.45176C14.2144 9.36153 14.0536 9.36153 13.8953 9.45176C13.7411 9.54118 13.6574 9.68473 13.6574 9.86602V21.2503C13.6574 21.43 13.7395 21.5727 13.8953 21.6621C14.0553 21.7548 14.2136 21.7548 14.3711 21.6638L19.3045 18.8165C19.6186 18.6352 20.0206 18.7426 20.2019 19.0568C20.3832 19.371 20.2757 19.7729 19.9615 19.9542L15.0298 22.8007C14.7501 22.9631 14.4433 23.0443 14.1357 23.0443L14.1349 23.0452ZM22.6628 18.2947C22.4356 18.2947 22.2149 18.1766 22.0935 17.9666C21.9122 17.6524 22.0197 17.2505 22.3339 17.0692L24.2337 15.9716C24.3904 15.8814 24.4724 15.7395 24.4724 15.559C24.4724 15.3785 24.3904 15.2366 24.2345 15.1472L22.2912 14.0258C21.977 13.8445 21.8696 13.4426 22.0509 13.1284C22.2322 12.8142 22.6341 12.7068 22.9483 12.8881L24.89 14.0086C25.4503 14.3302 25.7858 14.9101 25.7858 15.559C25.7858 16.2079 25.4502 16.787 24.8883 17.1102L22.9901 18.207C22.8905 18.2649 22.7773 18.2955 22.662 18.2956L22.6628 18.2947Z" fill="#3A2BE5"/>
<path d="M21.1329 36.7739C18.987 36.7739 17.2413 35.0283 17.2413 32.8823C17.2413 31.4919 17.9845 30.2171 19.1666 29.524V7.42476C19.1666 7.1557 19.3307 6.9137 19.58 6.81445C19.7022 6.76584 19.8361 6.75494 19.9644 6.78316C20.0928 6.81138 20.2098 6.87742 20.3003 6.97277L22.9163 9.73312C23.032 9.85516 23.0966 10.0169 23.0967 10.1851V29.524C24.2788 30.2163 25.022 31.4911 25.022 32.8823C25.022 35.0283 23.2772 36.7739 21.1329 36.7739ZM20.4807 9.07359V29.9251C20.4807 30.1851 20.3273 30.4206 20.0903 30.5256C19.1576 30.939 18.5555 31.8643 18.5555 32.8832C18.5555 34.3048 19.7121 35.4606 21.1329 35.4606C22.5537 35.4606 23.7079 34.3039 23.7079 32.8832C23.7079 31.8635 23.1057 30.939 22.1739 30.5264C22.0575 30.475 21.9585 30.3909 21.889 30.2843C21.8195 30.1777 21.7826 30.0532 21.7826 29.9259V10.4468L20.4807 9.07277V9.07359ZM21.1329 34.6952C20.1338 34.6952 19.32 33.8823 19.32 32.8823C19.32 31.8824 20.1329 31.0694 21.1329 31.0694C22.1329 31.0694 22.9458 31.8824 22.9458 32.8823C22.9458 33.8823 22.1329 34.6952 21.1329 34.6952ZM21.1329 32.3836C20.8581 32.3836 20.6341 32.6075 20.6341 32.8823C20.6341 33.1571 20.8581 33.3811 21.1329 33.3811C21.4077 33.3811 21.6316 33.1571 21.6316 32.8823C21.6316 32.6075 21.4077 32.3836 21.1329 32.3836Z" fill="#3A2BE5"/>
<path d="M6.2131 11.8954H1.31173C0.949155 11.8954 0.654663 11.6018 0.654663 11.2384C0.654663 10.875 0.949155 10.5813 1.31173 10.5813H6.2131C6.57568 10.5813 6.87017 10.875 6.87017 11.2384C6.87017 11.6018 6.57568 11.8954 6.2131 11.8954Z" fill="#3A2BE5"/>
<path d="M6.2131 33.3163C5.85052 33.3163 5.55603 33.0226 5.55603 32.6592V5.88339C5.55603 5.52081 5.85052 5.22632 6.2131 5.22632C6.57568 5.22632 6.87017 5.51999 6.87017 5.88339V32.6592C6.87017 33.0218 6.57568 33.3163 6.2131 33.3163Z" fill="#3A2BE5"/>
<path d="M6.2131 17.2504H1.31173C0.949155 17.2504 0.654663 16.9567 0.654663 16.5933C0.654663 16.23 0.949155 15.9363 1.31173 15.9363H6.2131C6.57568 15.9363 6.87017 16.23 6.87017 16.5933C6.87017 16.9567 6.57568 17.2504 6.2131 17.2504ZM6.2131 22.6054H1.31173C0.949155 22.6054 0.654663 22.3117 0.654663 21.9483C0.654663 21.585 0.949155 21.2913 1.31173 21.2913H6.2131C6.57568 21.2913 6.87017 21.585 6.87017 21.9483C6.87017 22.3117 6.57568 22.6054 6.2131 22.6054ZM6.2131 27.9604H1.31173C0.949155 27.9604 0.654663 27.6667 0.654663 27.3033C0.654663 26.94 0.949155 26.6463 1.31173 26.6463H6.2131C6.57568 26.6463 6.87017 26.94 6.87017 27.3033C6.87017 27.6667 6.57568 27.9604 6.2131 27.9604Z" fill="#3A2BE5"/>
</svg>
